<?xml version="1.0" encoding="utf-8"?>
<!-- Generator: Adobe Illustrator 28.0.0, SVG Export Plug-In . SVG Version: 6.00 Build 0)  -->
<svg version="1.1" id="Слой_1" xmlns="http://www.w3.org/2000/svg" xmlns:xlink="http://www.w3.org/1999/xlink" x="0px" y="0px"
	 viewBox="0 0 1000 180.5880737" enable-background="new 0 0 1000 180.5880737" xml:space="preserve">
<path id="path" fill="#4D6BFE" d="M238.3491058,15.1859102c-2.5393982-1.2905111-3.6633911,1.1239939-5.1620483,2.3728743
	c-0.4995575,0.3746643-0.9158478,0.915844-1.373764,1.3737679c-3.7050171,4.0796776-8.0760956,6.7439575-13.7793274,6.410923
	c-8.2842407-0.4579239-15.4028625,2.206356-21.6889038,8.6589088c-1.3321381-7.9928398-5.7864685-12.7385864-12.530426-15.8191586
	c-3.5384979-1.5819168-7.0769958-3.1638336-9.5747681-6.619071c-1.7068024-2.4977608-2.2063446-5.2452993-3.0389404-7.9512081
	c-0.5828094-1.6235454-1.1239929-3.2887201-2.9556732-3.5801256c-1.9982147-0.2914056-2.7891693,1.4153984-3.5801392,2.830797
	c-3.1221924,5.8697405-4.3710785,12.3222923-4.2461853,18.8164711c0.2913971,14.6951656,6.3692932,26.3930187,18.441803,34.718895
	c1.3737793,0.915844,1.7484436,1.8733177,1.2905121,3.2887192c-0.7909546,2.8724289-1.7900543,5.6199684-2.6642761,8.4923973
	c-0.5411835,1.8316803-1.3737793,2.2479782-3.2887268,1.457016c-6.6190643-2.8307877-12.3639221-6.9937286-17.442688-12.0725136
	c-8.5756531-8.4507599-16.3603516-17.8173676-26.0599976-25.1441345c-2.2479858-1.7068043-4.5375977-3.2887211-6.9104691-4.7873764
	c-9.8661575-9.7828999,1.3321381-17.8173695,3.9131622-18.7748451c2.7059097-0.999104,0.9158401-4.4127126-7.8263168-4.4127126
	c-8.7421722,0.0416298-16.7350082,3.0389438-26.9758377,7.0353627c-1.4570312,0.5828123-3.0389404,1.0407343-4.6624832,1.3737688
	c-9.2417297-1.790062-18.8581085-2.1647263-28.932415-1.0407333c-18.8997307,2.1647263-34.0111885,11.281558-45.1262283,26.8093147
	C0.8119402,57.314827-2.3102622,78.5874405,1.5196395,100.7342606c4.0380487,23.3540649,15.735899,42.6700821,33.7197876,57.7815475
	c18.6499557,15.6942749,40.1307068,23.3540802,64.6087723,21.8970642
	c14.9033127-0.8742371,31.4718094-2.9140625,50.1217575-19.0246429c4.7457428,2.3728943,9.65802,3.330368,17.8590088,4.0796967
	c6.3276672,0.5828094,12.4055481-0.3330383,17.1512909-1.3321533c7.3683929-1.5819092,6.8688507-8.5340118,4.1629333-9.8245239
	c-21.6056366-10.2408295-16.8598938-6.0778961-21.1893463-9.4498596
	c10.9901581-13.2797699,27.5586395-27.0174637,34.0528259-71.6025162c0.4995422-3.5384979,0.083252-5.7864761,0-8.658905
	c-0.0416412-1.7484322,0.3330231-2.4145012,2.2896118-2.6226501c5.4534454-0.6244431,10.6987457-2.1231003,15.5277557-4.8290062
	c13.9874573-7.8263206,19.6490631-20.6065369,20.9812012-35.9677734
	C241.013382,18.8076649,240.7636108,16.3931618,238.3491058,15.1859102z M116.2085419,153.353775
	c-20.9395752-16.7766418-31.0971375-22.3133392-35.3017044-22.0635681c-3.9131622,0.2497864-3.2470932,4.787384-2.3728714,7.7846985
	c0.9158478,2.9556885,2.0814667,4.9955139,3.7466431,7.5765533c1.1239929,1.7068024,1.9149475,4.2461853-1.1656265,6.1611328
	c-6.7439499,4.2462006-18.4834366-1.4570312-19.0246162-1.7068024
	c-13.6544304-8.2009888-25.0608749-19.0246277-33.1369781-33.8446732
	c-7.7430611-14.2372437-12.2806625-29.5152206-13.0299902-45.792305c-0.1665173-3.9547958,0.9574766-5.3285599,4.7873755-6.0778885
	c5.0787849-0.9158478,10.2824554-1.1239929,15.3612385-0.3746643C57.4695091,68.1800995,75.6615372,77.9213638,90.9395142,93.36586
	c8.7421722,8.7837982,15.3196106,19.3160248,22.1051941,29.5568466
	c7.2435074,10.9068985,14.9865723,21.2726059,24.8943634,29.806633c3.4968719,2.9973145,6.286026,5.245285,8.9503021,6.9104767
	C138.8549042,160.5556641,125.408638,160.7638092,116.2085419,153.353775z M126.2828445,87.5377502
	c0-1.748436,1.3737717-3.1638336,3.080574-3.1638336c0.4162903,0,0.7493286,0.0832596,1.0823669,0.2081451
	c0.4162903,0.1665192,0.8325958,0.4162903,1.1239929,0.7493286c0.5411835,0.5828094,0.8742065,1.3737717,0.8742065,2.2063599
	c0,1.748436-1.373764,3.1222-3.1221924,3.1222C127.6149826,90.6599503,126.2828445,89.2861862,126.2828445,87.5377502z
	 M157.4632416,103.814827c-1.9982147,0.8742142-3.9964142,1.5819168-5.9113617,1.6651764
	c-2.9973145,0.1248932-6.2444-1.0823669-7.9928436-2.5810242c-2.7475433-2.3728714-4.7041321-3.6633835-5.5366974-7.7846832
	c-0.3746643-1.748436-0.1665192-4.4543457,0.1665039-5.9946365c0.7077026-3.3303452-0.0832672-5.4950714-2.4144897-7.4516525
	c-1.8733368-1.5819168-4.2878418-2.0398331-6.9104767-2.0398331c-0.957489,0-1.8733292-0.4162979-2.5393982-0.7909622
	c-1.1239929-0.5411835-1.9982071-1.9149551-1.1656265-3.6633911c0.2914047-0.5411758,1.6235504-1.8733139,1.9565887-2.123085
	c3.5384903-2.0814743,7.6597977-1.4154053,11.4897079,0.1665115c3.5384827,1.4570312,6.2027588,4.1629333,10.0326691,7.992836
	c3.9548035,4.6208649,4.6624908,5.8697433,6.8688354,9.3249741c1.7900696,2.7059097,3.371994,5.495079,4.4959869,8.7005386
	C160.6687012,101.1921768,159.7944946,102.8573532,157.4632416,103.814827z"/>
<path id="path_00000091013476400594962610000001865912435408705212_" fill="#4D6BFE" d="M596.6530762,142.5301361h-10.3657227
	v-16.0689316h10.3657227c6.4108887,0,12.9050903-1.5819168,17.1096191-6.0362549
	c4.2045898-4.4543457,5.744873-11.2815628,5.744873-18.1087799c0-6.7855835-1.5402832-13.6128006-5.744873-18.0671463
	c-4.2045288-4.4543381-10.6987305-6.0362549-17.1096191-6.0362549c-6.4525757,0-12.9051514,1.5819168-17.1096802,6.0362549
	c-4.2462158,4.4543457-5.744873,11.2815628-5.744873,18.0671463v66.0658035h-18.1920166V62.1438332h18.1920166v6.7439613h3.3303833
	c0.3330078-0.3746643,0.7077026-0.7493286,1.1239624-1.1239929c4.5375977-4.1629372,11.4897461-5.6199684,18.4002075-5.6199684
	c10.6987305,0,21.4807129,2.6642799,28.5160522,10.0743065c6.9937744,7.4100342,9.5332031,18.8164749,9.5332031,30.1396637
	c0,11.2815628-2.5394287,22.6880035-9.5332031,30.0980225C618.1337891,139.907486,607.3518066,142.5301361,596.6530762,142.5301361z
	"/>
<path id="path_00000093168265079795269920000017970910563887922849_" fill="#4D6BFE" d="M319.6928711,64.9329987h10.3657227
	v16.0689392h-10.3657227c-6.4109192,0-12.9050903,1.5819168-17.1096497,6.0778885
	c-4.2045898,4.4543381-5.7448425,11.2815628-5.7448425,18.0671463c0,6.7855759,1.5402527,13.6128006,5.7448425,18.0671387
	c4.2045593,4.4543457,10.6987305,6.0778809,17.1096497,6.0778809c6.4525452,0,12.9051208-1.6235352,17.1096802-6.0778809
	c4.2461853-4.4543381,5.7448425-11.2815628,5.7448425-18.0671387V39.1227951h18.1920471v106.2381363h-18.1920471v-6.7855835
	h-3.3303223c-0.3330383,0.4163055-0.7077332,0.7909698-1.1240234,1.1239929
	c-4.5375671,4.1629333-11.4897156,5.6615906-18.400177,5.6615906c-10.6987305,0-21.4807434-2.6642761-28.5160828-10.1159363
	c-6.9937439-7.4100189-9.5331421-18.7748413-9.5331421-30.0980225s2.5393982-22.6880112,9.5331421-30.1396637
	C298.2121277,67.5972824,308.9941406,64.9329987,319.6928711,64.9329987z"/>
<path id="path_00000166671589508078754630000001175852459089135262_" fill="#4D6BFE" d="M452.0742493,103.7315674v6.4525528
	h-48.4565735v-12.905098h32.1378784c-0.7493286-4.7041245-2.4561157-9.0752029-5.4534607-12.2390366
	c-4.4126892-4.6208649-11.1150208-6.2860336-17.8173523-6.2860336c-6.660675,0-13.4046631,1.6651688-17.7757568,6.2860336
	c-4.3710632,4.5792313-5.9530029,11.6562195-5.9530029,18.6915817c0,7.0353699,1.5819397,14.1123581,5.9530029,18.7332153
	c4.3710938,4.6208649,11.1150818,6.2444,17.7757568,6.2444c6.7023315,0,13.4046631-1.6235352,17.8173523-6.2444
	c0.6244507-0.666069,1.1656189-1.373764,1.6651917-2.1231003h17.9838867
	c-1.5402832,5.5783386-4.0796814,10.6155014-7.826355,14.5702896c-7.2851257,7.7014313-18.5250549,10.4489594-29.6400757,10.4489594
	s-22.3133545-2.7475281-29.5984802-10.4489594c-7.3267822-7.7014389-9.9494019-19.4825516-9.9494019-31.1804047
	s2.6226196-23.4789581,9.9494019-31.1803894c7.2851257-7.6598053,18.4834595-10.4073448,29.5984802-10.4073448
	s22.35495,2.7475395,29.6400757,10.4073448C449.4515991,80.2526093,452.0742493,92.0337219,452.0742493,103.7315674z"/>
<path id="path_00000060019345107364964970000003826024771922727572_" fill="#4D6BFE" d="M543.3674927,103.7315674v6.4525528
	h-48.4566345v-12.905098h32.1795349c-0.7493286-4.7041245-2.4561768-9.0752029-5.4950562-12.2390366
	c-4.3711548-4.6208649-11.0734558-6.2860336-17.7757874-6.2860336c-6.6607056,0-13.4046326,1.6651688-17.7757263,6.2860336
	c-4.3710938,4.5792313-5.9530029,11.6562195-5.9530029,18.6915817c0,7.0353699,1.5819092,14.1123581,5.9530029,18.7332153
	c4.3710938,4.6208649,11.1150208,6.2444,17.7757263,6.2444c6.7023315,0,13.4046326-1.6235352,17.7757874-6.2444
	c0.6243896-0.666069,1.2072144-1.373764,1.7067871-2.1231003h17.9838867
	c-1.5819092,5.5783386-4.0797119,10.6155014-7.826355,14.5702896c-7.3267822,7.7014313-18.5250244,10.4489594-29.6401062,10.4489594
	c-11.1150208,0-22.313324-2.7475281-29.6400757-10.4489594c-7.2851562-7.7014389-9.9078064-19.4825516-9.9078064-31.1804047
	s2.6226501-23.4789581,9.9078064-31.1803894c7.3267517-7.6598053,18.5250549-10.4073448,29.6400757-10.4073448
	c11.1150818,0,22.313324,2.7475395,29.6401062,10.4073448C540.744812,80.2526093,543.3674927,92.0337219,543.3674927,103.7315674z"
	/>
<path id="path_00000026854509390344033760000010446875894533044156_" fill="#4D6BFE" d="M686.4891968,145.3609314
	c11.1151123,0,22.3133545-1.6235352,29.5984497-6.1611328c7.3268433-4.5376129,9.9494629-11.4897156,9.9494629-18.4001846
	c0-6.9104767-2.6226196-13.8625793-9.9494629-18.4001846c-7.2850952-4.5375977-18.4833374-6.1611404-29.5984497-6.1611404h0.3746948
	c-4.7457275,0-9.5331421-0.6244507-12.6136475-2.414505c-3.1222534-1.748436-4.2462158-4.4543457-4.2462158-7.1186218
	c0-2.7059097,1.1239624-5.3701859,4.2462158-7.1602478c3.0805054-1.748436,7.8679199-2.372879,12.6136475-2.372879
	c4.7457886,0,9.5331421,0.6244431,12.6553345,2.372879c3.1221924,1.790062,4.2045288,4.4543381,4.2045288,7.1602478h18.5250854
	c0-6.9104767-2.3728638-13.8625793-8.9503174-18.4001846c-6.6190796-4.5375977-16.7349854-6.1611443-26.8093262-6.1611443
	c-10.0742798,0-20.1901855,1.6235466-26.8092651,6.1611443c-6.6191406,4.5376053-8.9919434,11.4897079-8.9919434,18.4001846
	c0,6.9104691,2.3728027,13.8625717,8.9919434,18.400177c6.6190796,4.5375977,16.7349854,6.1611404,26.8092651,6.1611404
	c5.2453613,0,10.9485474,0.6244507,14.4038086,2.3728867c3.4552002,1.7484207,4.6624756,4.4543381,4.6624756,7.1602478
	c0,2.6642761-1.2072754,5.3701782-4.6624756,7.1186142c-3.4552612,1.7484283-8.7421875,2.414505-13.9874878,2.414505
	s-10.5322266-0.6660767-13.9458618-2.414505c-3.4552002-1.748436-4.7041016-4.4543381-4.7041016-7.1186142h-21.31427
	c0,6.9104691,2.6226807,13.8625717,9.9078369,18.4001846C664.1342163,143.7373962,675.3325806,145.3609314,686.4891968,145.3609314z
	"/>
<path id="path_00000010287883883194691010000006820299812638582964_" fill="#4D6BFE" d="M817.3303223,103.7315674v6.4525528
	h-48.456604v-12.905098h32.1795044c-0.7492676-4.7041245-2.4561157-9.0752029-5.4950562-12.2390366
	c-4.3710938-4.6208649-11.0734253-6.2860336-17.7757568-6.2860336c-6.6607056,0-13.4046631,1.6651688-17.7757568,6.2860336
	c-4.3710938,4.5792313-5.9529419,11.6562195-5.9529419,18.6915817c0,7.0353699,1.5818481,14.1123581,5.9529419,18.7332153
	c4.3710938,4.6208649,11.1150513,6.2444,17.7757568,6.2444c6.7023315,0,13.4046631-1.6235352,17.7757568-6.2444
	c0.6244507-0.666069,1.2072144-1.373764,1.7067871-2.1231003h17.9838867
	c-1.5819092,5.5783386-4.0796509,10.6155014-7.826355,14.5702896c-7.3267212,7.7014313-18.5250244,10.4489594-29.6400757,10.4489594
	c-11.1149902,0-22.3133545-2.7475281-29.6400757-10.4489594c-7.2851562-7.7014389-9.9077759-19.4825516-9.9077759-31.1804047
	s2.6226196-23.4789581,9.9077759-31.1803894c7.3267212-7.6598053,18.5250854-10.4073448,29.6400757-10.4073448
	c11.1150513,0,22.3133545,2.7475395,29.6400757,10.4073448C814.7076416,80.2526093,817.3303223,92.0337219,817.3303223,103.7315674z
	"/>
<path id="path_00000152985335727636904140000008184195623048560816_" fill="#4D6BFE" d="M908.6651611,103.7315674v6.4525528
	h-48.456604v-12.905098h32.1795044c-0.7909546-4.7041245-2.4561157-9.0752029-5.4951172-12.2390366
	c-4.3710327-4.6208649-11.1149902-6.2860336-17.7756958-6.2860336s-13.4046631,1.6651688-17.7757568,6.2860336
	c-4.4126587,4.5792313-5.9529419,11.6562195-5.9529419,18.6915817c0,7.0353699,1.5402832,14.1123581,5.9529419,18.7332153
	c4.3710938,4.6208649,11.1150513,6.2444,17.7757568,6.2444s13.4046631-1.6235352,17.7756958-6.2444
	c0.6245117-0.666069,1.1657104-1.373764,1.7068481-2.1231003h17.9838867
	c-1.5819092,5.5783386-4.0797119,10.6155014-7.8679199,14.5702896
	c-7.2851562,7.7014313-18.4834595,10.4489594-29.5985107,10.4489594c-11.1149902,0-22.3549805-2.7475281-29.6401367-10.4489594
	s-9.9077148-19.4825516-9.9077148-31.1804047s2.6225586-23.4789581,9.9077148-31.1803894
	c7.2851562-7.6598053,18.5251465-10.4073448,29.6401367-10.4073448c11.1150513,0,22.3133545,2.7475395,29.5985107,10.4073448
	C906.0424805,80.2526093,908.6651611,92.0337219,908.6651611,103.7315674z"/>
<rect id="rect" x="920.9091187" y="35.4198151" fill="#4D6BFE" width="18.1962051" height="109.9666595"/>
<path id="polygon" fill="#4D6BFE" d="M970.1516724,101.2338028L1000,145.3609314h-22.5631714l-29.8482666-44.1271286
	l29.8482666-35.3849564H1000L970.1516724,101.2338028z"/>
</svg>
