<?xml version="1.0" encoding="utf-8"?>
<!-- Generator: Adobe Illustrator 28.0.0, SVG Export Plug-In . SVG Version: 6.00 Build 0)  -->
<svg version="1.1" id="Слой_1" xmlns="http://www.w3.org/2000/svg" xmlns:xlink="http://www.w3.org/1999/xlink" x="0px" y="0px"
	 viewBox="0 0 1000 299.5775146" style="enable-background:new 0 0 1000 299.5775146;" xml:space="preserve">
<style type="text/css">
	.st0{fill:#FFFFFF;}
	.st1{fill:url(#SVGID_1_);}
	.st2{fill:url(#SVGID_00000068661252599774084580000008539618647637349047_);}
	.st3{fill:url(#SVGID_00000129169034191117754560000013905367683982669232_);}
	.st4{fill:url(#SVGID_00000083062698309736631630000018328516491081366151_);}
	.st5{fill:url(#SVGID_00000062158869325571195310000005727992589154010006_);}
	.st6{fill:url(#SVGID_00000176726332549485634830000000050884288972115862_);}
	.st7{fill:#5E52D3;}
</style>
<g>
	<g>
		<g>
			<path class="st0" d="M110.0751801,7.1439905l20.589035,35.6629639l-20.589035,35.6630554h164.7126617l-20.5891266,35.6482162
				H93.6010437L70.9401855,74.8979416L110.0751801,7.1439905z"/>
		</g>
		<g>
			<path class="st0" d="M27.7188206,78.4557419h41.1781693l80.2845764,139.0940857L126.53508,256.7852173l-78.2271271-0.0284119
				l20.5890388-35.6629486l41.178154,0.0137329L27.7188206,78.4557419z"/>
		</g>
		<g>
			<path class="st0" d="M130.6499786,256.7563782l20.5891266,35.6629639l82.3564911-142.6376648l20.5744934,35.6629791h41.1929169
				l-39.1062622-67.7539597l-45.2935944,0.0142899L130.6499786,256.7563782z"/>
		</g>
		<g>
			
				<linearGradient id="SVGID_1_" gradientUnits="userSpaceOnUse" x1="-1147.9232178" y1="647.4528198" x2="-1147.0926514" y2="647.7044678" gradientTransform="matrix(222.5390015 0 0 -116.7829971 255530.421875 75689.5078125)">
				<stop  offset="0" style="stop-color:#615CED;stop-opacity:0.5"/>
				<stop  offset="0" style="stop-color:#6964ED;stop-opacity:0.53"/>
				<stop  offset="0.01" style="stop-color:#8884F1;stop-opacity:0.62"/>
				<stop  offset="0.03" style="stop-color:#A4A2F4;stop-opacity:0.72"/>
				<stop  offset="0.04" style="stop-color:#BDBBF7;stop-opacity:0.79"/>
				<stop  offset="0.06" style="stop-color:#D2D0F9;stop-opacity:0.86"/>
				<stop  offset="0.07" style="stop-color:#E2E1FB;stop-opacity:0.91"/>
				<stop  offset="0.09" style="stop-color:#EFEFFD;stop-opacity:0.95"/>
				<stop  offset="0.12" style="stop-color:#F8F8FE;stop-opacity:0.98"/>
				<stop  offset="0.15" style="stop-color:#FDFDFE"/>
				<stop  offset="0.25" style="stop-color:#FFFFFF"/>
			</linearGradient>
			<path class="st1" d="M110.0751801,7.1439905l20.589035,35.6629639l-20.589035,35.6630554h164.7126617l-20.5891266,35.6482162
				H93.6010437L70.9401855,74.8979416L110.0751801,7.1439905z"/>
		</g>
		<g>
			
				<linearGradient id="SVGID_00000132061729726011180710000001019265508692049567_" gradientUnits="userSpaceOnUse" x1="-1144.2694092" y1="648.1159058" x2="-1145.1547852" y2="648.8664551" gradientTransform="matrix(132.6000061 0 0 -194.6650085 151858.203125 126419.5859375)">
				<stop  offset="0" style="stop-color:#615CED;stop-opacity:0.5"/>
				<stop  offset="0" style="stop-color:#6964ED;stop-opacity:0.53"/>
				<stop  offset="0.01" style="stop-color:#8884F1;stop-opacity:0.62"/>
				<stop  offset="0.03" style="stop-color:#A4A2F4;stop-opacity:0.72"/>
				<stop  offset="0.04" style="stop-color:#BDBBF7;stop-opacity:0.79"/>
				<stop  offset="0.06" style="stop-color:#D2D0F9;stop-opacity:0.86"/>
				<stop  offset="0.07" style="stop-color:#E2E1FB;stop-opacity:0.91"/>
				<stop  offset="0.09" style="stop-color:#EFEFFD;stop-opacity:0.95"/>
				<stop  offset="0.12" style="stop-color:#F8F8FE;stop-opacity:0.98"/>
				<stop  offset="0.15" style="stop-color:#FDFDFE"/>
				<stop  offset="0.25" style="stop-color:#FFFFFF"/>
			</linearGradient>
			<path style="fill:url(#SVGID_00000132061729726011180710000001019265508692049567_);" d="M48.3079491,256.7710266
				l20.5890388-35.6629791h41.178154L27.7188206,78.4699402h41.1638718l80.2988739,139.0803375L126.53508,256.7847595
				L48.3079491,256.7710266z"/>
		</g>
		<g>
			
				<linearGradient id="SVGID_00000051381540976054471440000011040637972374914968_" gradientUnits="userSpaceOnUse" x1="-1146.496582" y1="649.0092773" x2="-1146.496582" y2="648.0933228" gradientTransform="matrix(179.8160095 0 0 -190.7659912 206371.46875 123926.59375)">
				<stop  offset="0" style="stop-color:#615CED;stop-opacity:0.5"/>
				<stop  offset="0" style="stop-color:#6964ED;stop-opacity:0.53"/>
				<stop  offset="0.01" style="stop-color:#8884F1;stop-opacity:0.62"/>
				<stop  offset="0.03" style="stop-color:#A4A2F4;stop-opacity:0.72"/>
				<stop  offset="0.04" style="stop-color:#BDBBF7;stop-opacity:0.79"/>
				<stop  offset="0.06" style="stop-color:#D2D0F9;stop-opacity:0.86"/>
				<stop  offset="0.07" style="stop-color:#E2E1FB;stop-opacity:0.91"/>
				<stop  offset="0.09" style="stop-color:#EFEFFD;stop-opacity:0.95"/>
				<stop  offset="0.12" style="stop-color:#F8F8FE;stop-opacity:0.98"/>
				<stop  offset="0.15" style="stop-color:#FDFDFE"/>
				<stop  offset="0.25" style="stop-color:#FFFFFF"/>
			</linearGradient>
			<path style="fill:url(#SVGID_00000051381540976054471440000011040637972374914968_);" d="M295.3773193,185.4446564h-41.1929169
				l-20.5744934-35.6629791L151.253418,292.4339905l-20.5891266-35.649231l80.2988739-139.0797729l45.2932434-0.0142899
				L295.3773193,185.4446564z"/>
		</g>
		<g>
			
				<linearGradient id="SVGID_00000173882703415772283430000011638432303358243215_" gradientUnits="userSpaceOnUse" x1="-1148.4417725" y1="649.3114014" x2="-1149.2310791" y2="648.8601685" gradientTransform="matrix(330.276001 0 0 -327.0466003 379584.34375 212431.09375)">
				<stop  offset="0" style="stop-color:#615CED"/>
				<stop  offset="0.17" style="stop-color:#6156EC"/>
				<stop  offset="0.38" style="stop-color:#6147E9"/>
				<stop  offset="0.61" style="stop-color:#622FE4"/>
				<stop  offset="0.62" style="stop-color:#632DE4"/>
			</linearGradient>
			<path style="fill:url(#SVGID_00000173882703415772283430000011638432303358243215_);" d="M301.5353699,181.8722229
				l-34.9915161-60.6095428l-4.1147156-7.1439438l18.5308533-32.0766983
				c0.6430664-1.1002197,0.9572449-2.3289566,0.9572449-3.5720749c0-1.2430191-0.3141785-2.4717484-0.9572449-3.5719757
				l-20.5891113-35.6629601c-0.6430359-1.1002197-1.542572-1.9860916-2.6143188-2.6147461
				c-1.0570679-0.6143684-2.3000793-0.9573212-3.5724182-0.9573212h-78.24086L157.411499,3.5720174
				C156.1400757,1.3716547,153.7822723,0,151.2394257,0h-41.1782379c-1.2723389,0-2.5007095,0.342913-3.557785,0.9572982
				c-1.0717239,0.6143853-1.972168,1.5145378-2.6151962,2.6147192L68.8826599,64.1962662l-4.1148987,7.1154556H27.7044983
				c-1.2716045,0-2.5004292,0.342865-3.5576859,0.9572296c-1.07164,0.6144562-1.9860916,1.514534-2.614748,2.6147461
				L0.9573023,110.5462952C0.3143375,111.6464233,0,112.8757095,0,114.1187363c0,1.2430191,0.3143375,2.4713898,0.9573023,3.5724258
				l39.1207314,67.7534943l-18.5316792,32.0914459c-0.6429443,1.1001282-0.9572296,2.3285065-0.9572296,3.5715179
				c0,1.2430267,0.3142853,2.4723053,0.9572296,3.5724487l20.5891285,35.6629486
				c0.6429443,1.1001282,1.5431061,1.9859009,2.6147461,2.6142883c1.0715446,0.6146545,2.3003693,0.9572144,3.5719719,0.9572144
				h78.2271423l18.5317764,32.0914612c1.2714233,2.2002563,3.6292114,3.5577698,6.1720581,3.5715332h41.1782532
				c1.2714233,0,2.5007019-0.3425903,3.5724335-0.9572449c1.0570831-0.614624,1.9712524-1.5141602,2.6142883-2.6142883
				l39.1208954-67.7544098h37.0635376c1.2714233,0,2.4997864-0.3425903,3.5715027-0.9572296
				c1.0570984-0.6146393,1.9721985-1.5141602,2.6152344-2.6142731l20.5891113-35.6629791
				c0.6421204-1.1010437,0.9572449-2.3294067,0.9572449-3.5724335c0-1.2430115-0.3151245-2.4723053-0.9572449-3.5724335H301.5353699
				z M110.0749207,7.1440296l20.5891266,35.6629715l-20.5891266,35.6486778h164.7130127l-20.5891418,35.6483994H93.6014252
				l-22.661232-39.2203827L110.0749207,7.1440296z M126.5346756,256.7852478l-78.2267609-0.0293274l20.5891266-35.6629486
				h41.1778793L27.7187881,78.4556808h41.1782532l20.589035,35.6630554l59.6950912,103.4310989l-22.6318283,39.2354126H126.5346756z
				 M254.1704254,185.4446564l-20.5753937-35.6629639l-82.3556061,142.6371918l-20.5891113-35.6629639l20.6028595-35.6483002
				l59.7100372-103.4027176h45.2929535l39.1062317,67.7397537H254.1704254z"/>
		</g>
		<g>
			
				<linearGradient id="SVGID_00000121966062108295373750000001220078625473395085_" gradientUnits="userSpaceOnUse" x1="-1149.2943115" y1="649.0858154" x2="-1148.378418" y2="649.0858154" gradientTransform="matrix(330.276001 0 0 -327.0466003 379584.34375 212431.09375)">
				<stop  offset="0" style="stop-color:#615CED"/>
				<stop  offset="0.04" style="stop-color:#615CED;stop-opacity:0.96"/>
				<stop  offset="0.09" style="stop-color:#615CED;stop-opacity:0.86"/>
				<stop  offset="0.17" style="stop-color:#615CED;stop-opacity:0.69"/>
				<stop  offset="0.25" style="stop-color:#615CED;stop-opacity:0.46"/>
				<stop  offset="0.35" style="stop-color:#615CED;stop-opacity:0.16"/>
				<stop  offset="0.4" style="stop-color:#615CED;stop-opacity:0"/>
			</linearGradient>
			<path style="fill:url(#SVGID_00000121966062108295373750000001220078625473395085_);" d="M301.5353699,181.8722229
				l-34.9915161-60.6095428l-4.1147156-7.1439438l18.5308533-32.0766983
				c0.6430664-1.1002197,0.9572449-2.3289566,0.9572449-3.5720749c0-1.2430191-0.3141785-2.4717484-0.9572449-3.5719757
				l-20.5891113-35.6629601c-0.6430359-1.1002197-1.542572-1.9860916-2.6143188-2.6147461
				c-1.0570679-0.6143684-2.3000793-0.9573212-3.5724182-0.9573212h-78.24086L157.411499,3.5720174
				C156.1400757,1.3716547,153.7822723,0,151.2394257,0h-41.1782379c-1.2723389,0-2.5007095,0.342913-3.557785,0.9572982
				c-1.0717239,0.6143853-1.972168,1.5145378-2.6151962,2.6147192L68.8826599,64.1962662l-4.1148987,7.1154556H27.7044983
				c-1.2716045,0-2.5004292,0.342865-3.5576859,0.9572296c-1.07164,0.6144562-1.9860916,1.514534-2.614748,2.6147461
				L0.9573023,110.5462952C0.3143375,111.6464233,0,112.8757095,0,114.1187363c0,1.2430191,0.3143375,2.4713898,0.9573023,3.5724258
				l39.1207314,67.7534943l-18.5316792,32.0914459c-0.6429443,1.1001282-0.9572296,2.3285065-0.9572296,3.5715179
				c0,1.2430267,0.3142853,2.4723053,0.9572296,3.5724487l20.5891285,35.6629486
				c0.6429443,1.1001282,1.5431061,1.9859009,2.6147461,2.6142883c1.0715446,0.6146545,2.3003693,0.9572144,3.5719719,0.9572144
				h78.2271423l18.5317764,32.0914612c1.2714233,2.2002563,3.6292114,3.5577698,6.1720581,3.5715332h41.1782532
				c1.2714233,0,2.5007019-0.3425903,3.5724335-0.9572449c1.0570831-0.614624,1.9712524-1.5141602,2.6142883-2.6142883
				l39.1208954-67.7544098h37.0635376c1.2714233,0,2.4997864-0.3425903,3.5715027-0.9572296
				c1.0570984-0.6146393,1.9721985-1.5141602,2.6152344-2.6142731l20.5891113-35.6629791
				c0.6421204-1.1010437,0.9572449-2.3294067,0.9572449-3.5724335c0-1.2430115-0.3151245-2.4723053-0.9572449-3.5724335H301.5353699
				z M110.0749207,7.1440296l20.5891266,35.6629715l-20.5891266,35.6486778h164.7130127l-20.5891418,35.6483994H93.6014252
				l-22.661232-39.2203827L110.0749207,7.1440296z M126.5346756,256.7852478l-78.2267609-0.0293274l20.5891266-35.6629486
				h41.1778793L27.7187881,78.4556808h41.1782532l20.589035,35.6630554l59.6950912,103.4310989l-22.6318283,39.2354126H126.5346756z
				 M254.1704254,185.4446564l-20.5753937-35.6629639l-82.3556061,142.6371918l-20.5891113-35.6629639l20.6028595-35.6483002
				l59.7100372-103.4027176h45.2929535l39.1062317,67.7397537H254.1704254z"/>
		</g>
		<g>
			
				<linearGradient id="SVGID_00000070830124859669202040000011174316696882164137_" gradientUnits="userSpaceOnUse" x1="-1148.6040039" y1="649.484375" x2="-1149.0687256" y2="648.6872559" gradientTransform="matrix(330.276001 0 0 -327.0466003 379584.34375 212431.09375)">
				<stop  offset="0" style="stop-color:#A7A5F6"/>
				<stop  offset="0.05" style="stop-color:#9895F4;stop-opacity:0.79"/>
				<stop  offset="0.12" style="stop-color:#8784F1;stop-opacity:0.55"/>
				<stop  offset="0.19" style="stop-color:#7975F0;stop-opacity:0.35"/>
				<stop  offset="0.25" style="stop-color:#6F6AEE;stop-opacity:0.2"/>
				<stop  offset="0.31" style="stop-color:#6762ED;stop-opacity:0.09"/>
				<stop  offset="0.36" style="stop-color:#625DED;stop-opacity:0.02"/>
				<stop  offset="0.4" style="stop-color:#615CED;stop-opacity:0"/>
			</linearGradient>
			<path style="fill:url(#SVGID_00000070830124859669202040000011174316696882164137_);" d="M301.5353699,181.8722229
				l-34.9915161-60.6095428l-4.1147156-7.1439438l18.5308533-32.0766983
				c0.6430664-1.1002197,0.9572449-2.3289566,0.9572449-3.5720749c0-1.2430191-0.3141785-2.4717484-0.9572449-3.5719757
				l-20.5891113-35.6629601c-0.6430359-1.1002197-1.542572-1.9860916-2.6143188-2.6147461
				c-1.0570679-0.6143684-2.3000793-0.9573212-3.5724182-0.9573212h-78.24086L157.411499,3.5720174
				C156.1400757,1.3716547,153.7822723,0,151.2394257,0h-41.1782379c-1.2723389,0-2.5007095,0.342913-3.557785,0.9572982
				c-1.0717239,0.6143853-1.972168,1.5145378-2.6151962,2.6147192L68.8826599,64.1962662l-4.1148987,7.1154556H27.7044983
				c-1.2716045,0-2.5004292,0.342865-3.5576859,0.9572296c-1.07164,0.6144562-1.9860916,1.514534-2.614748,2.6147461
				L0.9573023,110.5462952C0.3143375,111.6464233,0,112.8757095,0,114.1187363c0,1.2430191,0.3143375,2.4713898,0.9573023,3.5724258
				l39.1207314,67.7534943l-18.5316792,32.0914459c-0.6429443,1.1001282-0.9572296,2.3285065-0.9572296,3.5715179
				c0,1.2430267,0.3142853,2.4723053,0.9572296,3.5724487l20.5891285,35.6629486
				c0.6429443,1.1001282,1.5431061,1.9859009,2.6147461,2.6142883c1.0715446,0.6146545,2.3003693,0.9572144,3.5719719,0.9572144
				h78.2271423l18.5317764,32.0914612c1.2714233,2.2002563,3.6292114,3.5577698,6.1720581,3.5715332h41.1782532
				c1.2714233,0,2.5007019-0.3425903,3.5724335-0.9572449c1.0570831-0.614624,1.9712524-1.5141602,2.6142883-2.6142883
				l39.1208954-67.7544098h37.0635376c1.2714233,0,2.4997864-0.3425903,3.5715027-0.9572296
				c1.0570984-0.6146393,1.9721985-1.5141602,2.6152344-2.6142731l20.5891113-35.6629791
				c0.6421204-1.1010437,0.9572449-2.3294067,0.9572449-3.5724335c0-1.2430115-0.3151245-2.4723053-0.9572449-3.5724335H301.5353699
				z M110.0749207,7.1440296l20.5891266,35.6629715l-20.5891266,35.6486778h164.7130127l-20.5891418,35.6483994H93.6014252
				l-22.661232-39.2203827L110.0749207,7.1440296z M126.5346756,256.7852478l-78.2267609-0.0293274l20.5891266-35.6629486
				h41.1778793L27.7187881,78.4556808h41.1782532l20.589035,35.6630554l59.6950912,103.4310989l-22.6318283,39.2354126H126.5346756z
				 M254.1704254,185.4446564l-20.5753937-35.6629639l-82.3556061,142.6371918l-20.5891113-35.6629639l20.6028595-35.6483002
				l59.7100372-103.4027176h45.2929535l39.1062317,67.7397537H254.1704254z"/>
		</g>
	</g>
</g>
<path class="st7" d="M551.0652466,240.6407013c-9.9980469,0-19.0635986,0.0461578-28.1271973-0.0676117
	c-0.9620361-0.012085-2.1039429-0.7714539-2.8344727-1.5090027c-2.9354248-2.9634552-5.8655396-5.9505768-8.5486145-9.1385193
	c-1.5644836-1.8588715-2.8524475-1.9131622-5.0312805-1.0075684c-26.8809204,11.1724854-54.0440369,11.5494843-80.467865-0.5561371
	c-26.5352173-12.1566772-41.8880615-33.7864532-46.7988892-62.4355927
	c-3.6746826-21.4376526-2.2345886-42.6172638,8.016571-62.2136078
	c14.8687134-28.4233246,38.4587402-44.9516373,70.418457-48.9372902c17.319397-2.1598778,34.5185547-1.1739197,50.7094727,5.8389626
	c29.1256714,12.615387,46.0363159,35.0902405,50.9206543,66.3122559c3.4995728,22.3702393,0.4988403,43.87323-10.9311523,63.80159
	c-5.342041,9.3138275-12.2816162,17.3307343-20.5424194,24.8199158
	C535.4500732,223.763855,542.9731445,231.8947906,551.0652466,240.6407013z M512.0421143,198.6533966
	c4.1456909-5.3478699,8.6647339-9.9675598,11.7703247-15.3959198c12.5043335-21.856781,14.0853882-44.9912872,5.4396973-68.4159851
	c-6.0656738-16.4343491-18.0701904-27.7564163-34.8607178-33.1010742
	c-17.7706604-5.6566467-35.6582642-4.9236221-52.4526672,3.2541733
	c-25.9303284,12.6263657-38.090271,34.179245-38.0343018,62.7950211
	c0.034729,17.7463989,5.7485352,33.3770447,18.0918579,46.3011322
	c16.1816711,16.9430084,36.3976746,20.727066,58.6206665,17.4808044c3.6411133-0.5318909,7.2052917-1.590332,11.4281921-2.546524
	c-11.2433167-12.1954346-21.9341125-23.7915802-33.1446838-35.9514771c9.9329224,0,19.0691528-0.0444946,28.2032471,0.0749207
	c0.8327026,0.0108643,1.772644,0.9561462,2.4567566,1.6660919c3.6910706,3.8304901,7.318512,7.7223206,10.9651184,11.5955811
	C504.1547546,190.2648468,507.7806396,194.1226807,512.0421143,198.6533966z"/>
<path class="st7" d="M672.5062256,115.4758911c7.3419189,24.5008698,14.4492798,48.2190094,21.7940674,72.7294006
	c0.9515991-1.6970825,1.5393677-2.708313,2.0928955-3.7379456c11.2870483-20.9971619,22.5980835-41.9815674,33.8095703-63.0189972
	c1.0791016-2.0248947,2.2716064-2.8160019,4.6057739-2.7775421c8.8687744,0.1461411,17.741394,0.0588913,27.4321899,0.0588913
	c-24.5263062,42.1520309-48.78479,83.8436203-73.4854736,126.2954025
	c-7.7355957-24.7192535-15.2501831-48.732193-23.0474854-73.6483917
	c-13.7582397,24.8064117-27.1293945,48.9149933-40.8500977,73.6537476
	c-13.916626-42.3868103-27.5980835-84.0574341-41.3863525-126.0535202c1.2188721-0.0978699,2.1477661-0.2348633,3.0770874-0.2371902
	c7.2109375-0.0180054,14.4257202,0.122139,21.6311646-0.0785217c2.6864014-0.0748215,3.8012695,0.692131,4.552124,3.3557739
	c5.8640747,20.8031921,11.9125977,41.5544128,17.9094849,62.3201447c0.2957153,1.0239258,0.640564,2.0336761,1.2133179,3.8418579
	C645.4802856,163.8101349,658.7566528,140.0660858,672.5062256,115.4758911z"/>
<path class="st7" d="M870.9517212,213.2746582c-10.3979492,15.059845-23.8995361,24.0028839-42.0292969,25.1070251
	c-12.6329956,0.7694092-25.034729-0.219635-36.4746704-6.1698914
	c-14.6340942-7.6115875-23.7478027-19.6923981-26.8222046-35.8573456
	c-4.3530884-22.8876648-0.2833252-43.7862244,16.2055054-61.2294312c18.50177-19.5727005,51.5734863-23.6632996,73.710083-9.1372528
	c7.6668701,5.0310059,13.2746582,11.9208527,17.281311,20.1298828c6.3612061,13.0328674,7.2287598,26.8849182,6.2613525,41.4931335
	c-29.2990112,0-58.4008179,0-87.730896,0c-0.0764771,6.6278992,1.5945435,12.219696,5.4197388,17.0535583
	c8.2347412,10.4059448,19.4177856,12.7834015,31.8459473,11.207016c8.4554443-1.0724792,15.4924316-4.9589386,20.9049683-11.6315308
	c0.4823608-0.5946503,0.9525146-1.1991425,1.5344238-1.9327698
	C857.7789917,206.0124359,864.2290649,209.5684357,870.9517212,213.2746582z M851.9749146,165.9581451
	c-0.3145142-14.6710358-11.6072998-25.4564972-27.0629883-26.1159668
	c-16.177124-0.6902618-30.161377,10.7452087-31.6815186,26.1159668
	C812.7509155,165.9581451,832.2502441,165.9581451,851.9749146,165.9581451z"/>
<path class="st7" d="M965.87854,238.4413757c1.1904907-10.500946,2.3400879-20.5010834,3.4547729-30.505722
	c1.7011108-15.2675323,3.416626-30.533493,5.0283813-45.8120575c0.2745361-2.6025848,0.2816162-5.2897034,0.0315552-7.8952637
	c-0.7967529-8.3010406-5.1365967-12.7505493-12.8569336-13.466217c-13.8295288-1.2819824-25.6877441,7.168335-29.5292358,22.2633667
	c-2.295166,9.01828-3.2974854,18.4523926-4.4802246,27.7588196c-1.9074707,15.0091705-3.4636841,30.0700836-5.2518921,45.09758
	c-0.1068115,0.8978729-0.9402466,2.4184418-1.4557495,2.4283752c-8.053833,0.1548615-16.1110229,0.1084442-24.5090332,0.1084442
	c4.5157471-39.5844879,8.9801025-78.7183838,13.463623-118.0205765c8.4937134,0,16.7506104,0,25.4807129,0
	c-0.2537842,3.2833481-0.5009155,6.4800339-0.7733765,10.0042953c3.6218262-2.5274277,6.8068237-4.9849701,10.1906738-7.0666809
	c9.5715332-5.8882446,19.8373413-7.3771515,30.5579224-4.8912888c15.1706543,3.5177307,24.881958,15.6445389,24.7692871,32.5275345
	c-0.0808716,12.1202393-1.4527588,24.2555237-2.6635742,36.3357544
	c-1.5896606,15.8590698-3.6763916,31.6597748-5.3305054,47.5121307c-0.3138428,3.0073242-1.2368774,3.7819824-3.9217529,3.6901398
	c-6.2770386-0.2147064-12.5647583-0.068634-18.8480835-0.068634
	C968.2114258,238.4413757,967.1876831,238.4413757,965.87854,238.4413757z"/>
</svg>
